<svg width="15" height="15" viewBox="0 0 15 15" fill="none" xmlns="http://www.w3.org/2000/svg">
<g id="&#240;&#159;&#166;&#134; icon &#34;link 2&#34;">
<g id="Group">
<path id="Vector" d="M8.20996 5.73894L5.73894 8.20996C5.68104 8.26738 5.63509 8.33571 5.60372 8.41099C5.57236 8.48627 5.55621 8.56701 5.55621 8.64856C5.55621 8.73011 5.57236 8.81085 5.60372 8.88613C5.63509 8.96141 5.68104 9.02974 5.73894 9.08717C5.79637 9.14507 5.8647 9.19102 5.93998 9.22239C6.01525 9.25375 6.096 9.2699 6.17755 9.2699C6.2591 9.2699 6.33984 9.25375 6.41512 9.22239C6.4904 9.19102 6.55873 9.14507 6.61615 9.08717L9.08717 6.61615C9.20349 6.49983 9.26884 6.34206 9.26884 6.17755C9.26884 6.01304 9.20349 5.85527 9.08717 5.73894C8.97084 5.62262 8.81307 5.55727 8.64856 5.55727C8.48405 5.55727 8.32628 5.62262 8.20996 5.73894Z" fill="#6D6F77"/>
<path id="Vector_2" d="M7.586 10.7489L6.79527 11.5335C6.35137 11.9909 5.75463 12.2689 5.11887 12.3145C4.48311 12.36 3.85281 12.17 3.34821 11.7806C3.08151 11.5608 2.86387 11.2875 2.70935 10.9784C2.55484 10.6693 2.46688 10.3312 2.45116 9.98598C2.43544 9.64075 2.49231 9.29607 2.6181 8.97419C2.74388 8.65231 2.93579 8.36039 3.18142 8.11729L4.05862 7.23391C4.11653 7.17648 4.16248 7.10815 4.19385 7.03287C4.22521 6.9576 4.24136 6.87685 4.24136 6.7953C4.24136 6.71375 4.22521 6.63301 4.19385 6.55773C4.16248 6.48245 4.11653 6.41412 4.05862 6.3567C4.0012 6.29879 3.93287 6.25284 3.85759 6.22148C3.78231 6.19011 3.70157 6.17397 3.62002 6.17397C3.53847 6.17397 3.45773 6.19011 3.38245 6.22148C3.30717 6.25284 3.23884 6.29879 3.18142 6.3567L2.39687 7.14742C1.73597 7.78742 1.32975 8.64549 1.25363 9.56232C1.17751 10.4792 1.43667 11.3925 1.98297 12.1327C2.30722 12.5533 2.71726 12.9002 3.18586 13.1502C3.65445 13.4001 4.17088 13.5476 4.70083 13.5826C5.23078 13.6177 5.76212 13.5396 6.25957 13.3535C6.75701 13.1674 7.20917 12.8776 7.586 12.5033L8.46321 11.6261C8.57953 11.5098 8.64488 11.352 8.64488 11.1875C8.64488 11.023 8.57953 10.8652 8.46321 10.7489C8.34688 10.6326 8.18911 10.5672 8.0246 10.5672C7.86009 10.5672 7.70232 10.6326 7.586 10.7489Z" fill="#6D6F77"/>
<path id="Vector_3" d="M12.145 1.98916C11.3997 1.43717 10.4789 1.17538 9.55469 1.25269C8.63045 1.32999 7.76596 1.7411 7.12269 2.40923L6.45551 3.08876C6.37926 3.14419 6.31549 3.21502 6.26835 3.29666C6.2212 3.37831 6.19172 3.46894 6.18182 3.56269C6.17192 3.65645 6.18182 3.75124 6.21088 3.84093C6.23993 3.93061 6.2875 4.0132 6.3505 4.08334C6.40793 4.14124 6.47625 4.1872 6.55153 4.21856C6.62681 4.24992 6.70755 4.26607 6.7891 4.26607C6.87065 4.26607 6.9514 4.24992 7.02668 4.21856C7.10195 4.1872 7.17028 4.14124 7.22771 4.08334L8.03079 3.27408C8.47223 2.81467 9.06827 2.53515 9.70376 2.48951C10.3393 2.44387 10.9691 2.63536 11.4717 3.02698C11.7404 3.24678 11.9597 3.52072 12.1155 3.83097C12.2712 4.14121 12.3598 4.48078 12.3756 4.82756C12.3913 5.17435 12.3338 5.52055 12.2068 5.84363C12.0798 6.1667 11.8861 6.45938 11.6385 6.70261L10.7613 7.586C10.7034 7.64343 10.6574 7.71175 10.626 7.78703C10.5947 7.86231 10.5785 7.94306 10.5785 8.02461C10.5785 8.10616 10.5947 8.1869 10.626 8.26218C10.6574 8.33746 10.7034 8.40578 10.7613 8.46321C10.8187 8.52111 10.887 8.56707 10.9623 8.59843C11.0376 8.62979 11.1183 8.64594 11.1999 8.64594C11.2814 8.64594 11.3622 8.62979 11.4374 8.59843C11.5127 8.56707 11.581 8.52111 11.6385 8.46321L12.5157 7.586C12.8889 7.20924 13.1778 6.75747 13.3633 6.26064C13.5487 5.7638 13.6265 5.23323 13.5915 4.70406C13.5564 4.1749 13.4094 3.65921 13.16 3.19117C12.9106 2.72313 12.5647 2.31341 12.145 1.98916Z" fill="#6D6F77"/>
</g>
</g>
</svg>
