<svg width="21" height="21" viewBox="0 0 21 21" fill="none" xmlns="http://www.w3.org/2000/svg">
<g id="&#240;&#159;&#166;&#134; icon &#34;lock&#34;">
<g id="Group">
<path id="Vector" d="M10.5001 14C10.9833 14 11.3751 13.6082 11.3751 13.125C11.3751 12.6417 10.9833 12.25 10.5001 12.25C10.0168 12.25 9.62506 12.6417 9.62506 13.125C9.62506 13.6082 10.0168 14 10.5001 14Z" fill="#9CBCE0"/>
<path id="Vector_2" d="M14.875 6.99999H14V5.34624C14 4.41798 13.6313 3.52774 12.9749 2.87136C12.3185 2.21499 11.4283 1.84624 10.5 1.84624C9.57174 1.84624 8.6815 2.21499 8.02513 2.87136C7.36875 3.52774 7 4.41798 7 5.34624V6.99999H6.125C5.42881 6.99999 4.76113 7.27655 4.26884 7.76883C3.77656 8.26112 3.5 8.92879 3.5 9.62499V16.625C3.5 17.3212 3.77656 17.9889 4.26884 18.4811C4.76113 18.9734 5.42881 19.25 6.125 19.25H14.875C15.5712 19.25 16.2389 18.9734 16.7312 18.4811C17.2234 17.9889 17.5 17.3212 17.5 16.625V9.62499C17.5 8.92879 17.2234 8.26112 16.7312 7.76883C16.2389 7.27655 15.5712 6.99999 14.875 6.99999ZM8.75 5.34624C8.73823 4.86962 8.91577 4.40775 9.24375 4.06173C9.57173 3.71572 10.0234 3.51373 10.5 3.49999C10.9766 3.51373 11.4283 3.71572 11.7563 4.06173C12.0842 4.40775 12.2618 4.86962 12.25 5.34624V6.99999H8.75V5.34624ZM10.5 15.75C9.98082 15.75 9.47331 15.596 9.04163 15.3076C8.60995 15.0192 8.2735 14.6092 8.07482 14.1295C7.87614 13.6499 7.82415 13.1221 7.92544 12.6129C8.02672 12.1037 8.27673 11.6359 8.64384 11.2688C9.01096 10.9017 9.47869 10.6517 9.98789 10.5504C10.4971 10.4491 11.0249 10.5011 11.5045 10.6998C11.9842 10.8985 12.3942 11.2349 12.6826 11.6666C12.971 12.0983 13.125 12.6058 13.125 13.125C13.125 13.8212 12.8484 14.4889 12.3562 14.9811C11.8639 15.4734 11.1962 15.75 10.5 15.75Z" fill="#9CBCE0"/>
</g>
</g>
</svg>
